REM DIRINDEX 1\2\6,1\2\7,1\2\8,1\2\9,1\3\10,1\3\11,1\4\12,1\4\13,1\4\14,1\5\15,1\5\16,1\5\17
REM DIRNAME cjc029,folder01,folder02,folder03,folder04,folder05,folder06,folder07,folder08,folder09,folder10,folder11,folder12,folder13,folder14,folder15,folder16
TITLE ""
FILE "1400_2_sec13_1284_1300.mp3" MP3
  TRACK 01 AUDIO
    TITLE "0:"
    INDEX 01 00:00:00
  TRACK 02 AUDIO
    TITLE "13:cjc029_4187"
    INDEX 01 00:00:19
  TRACK 03 AUDIO
    TITLE "0:"
    INDEX 01 00:01:36
  TRACK 04 AUDIO
    TITLE "14:cjc029_4188"
    INDEX 01 00:01:38
  TRACK 05 AUDIO
    TITLE "0:"
    INDEX 01 00:02:55
  TRACK 06 AUDIO
    TITLE "13:cjc029_4189"
    INDEX 01 00:03:37
  TRACK 07 AUDIO
    TITLE "0:"
    INDEX 01 00:04:38
  TRACK 08 AUDIO
    TITLE "14:cjc029_4190"
    INDEX 01 00:04:42
  TRACK 09 AUDIO
    TITLE "0:"
    INDEX 01 00:06:69
  TRACK 10 AUDIO
    TITLE "13:cjc029_4191"
    INDEX 01 00:07:51
  TRACK 11 AUDIO
    TITLE "0:"
    INDEX 01 00:08:58
  TRACK 12 AUDIO
    TITLE "14:cjc029_4192"
    INDEX 01 00:08:62
  TRACK 13 AUDIO
    TITLE "0:"
    INDEX 01 00:10:39
  TRACK 14 AUDIO
    TITLE "13:cjc029_4193"
    INDEX 01 00:11:21
  TRACK 15 AUDIO
    TITLE "0:"
    INDEX 01 00:12:34
  TRACK 16 AUDIO
    TITLE "14:cjc029_4194"
    INDEX 01 00:12:38
  TRACK 17 AUDIO
    TITLE "0:"
    INDEX 01 00:15:27
  TRACK 18 AUDIO
    TITLE "13:cjc029_4195"
    INDEX 01 00:16:12
  TRACK 19 AUDIO
    TITLE "0:"
    INDEX 01 00:17:12
  TRACK 20 AUDIO
    TITLE "14:cjc029_4196"
    INDEX 01 00:17:16
  TRACK 21 AUDIO
    TITLE "0:"
    INDEX 01 00:20:04
  TRACK 22 AUDIO
    TITLE "13:cjc029_4197"
    INDEX 01 00:20:59
  TRACK 23 AUDIO
    TITLE "0:"
    INDEX 01 00:21:64
  TRACK 24 AUDIO
    TITLE "14:cjc029_4198"
    INDEX 01 00:21:68
  TRACK 25 AUDIO
    TITLE "0:"
    INDEX 01 00:25:72
  TRACK 26 AUDIO
    TITLE "13:cjc029_4199"
    INDEX 01 00:26:56
  TRACK 27 AUDIO
    TITLE "0:"
    INDEX 01 00:27:69
  TRACK 28 AUDIO
    TITLE "14:cjc029_4200"
    INDEX 01 00:27:71
  TRACK 29 AUDIO
    TITLE "0:"
    INDEX 01 00:29:27
  TRACK 30 AUDIO
    TITLE "13:cjc029_4201"
    INDEX 01 00:30:08
  TRACK 31 AUDIO
    TITLE "0:"
    INDEX 01 00:31:33
  TRACK 32 AUDIO
    TITLE "14:cjc029_4202"
    INDEX 01 00:31:37
  TRACK 33 AUDIO
    TITLE "0:"
    INDEX 01 00:34:00
  TRACK 34 AUDIO
    TITLE "13:cjc029_4203"
    INDEX 01 00:34:59
  TRACK 35 AUDIO
    TITLE "0:"
    INDEX 01 00:35:61
  TRACK 36 AUDIO
    TITLE "14:cjc029_4204"
    INDEX 01 00:35:66
  TRACK 37 AUDIO
    TITLE "0:"
    INDEX 01 00:38:73
  TRACK 38 AUDIO
    TITLE "13:cjc029_4205"
    INDEX 01 00:39:52
  TRACK 39 AUDIO
    TITLE "0:"
    INDEX 01 00:41:30
  TRACK 40 AUDIO
    TITLE "14:cjc029_4206"
    INDEX 01 00:41:34
  TRACK 41 AUDIO
    TITLE "0:"
    INDEX 01 00:45:06
  TRACK 42 AUDIO
    TITLE "13:cjc029_4207"
    INDEX 01 00:45:63
  TRACK 43 AUDIO
    TITLE "0:"
    INDEX 01 00:47:09
  TRACK 44 AUDIO
    TITLE "14:cjc029_4208"
    INDEX 01 00:47:13
  TRACK 45 AUDIO
    TITLE "0:"
    INDEX 01 00:49:57
  TRACK 46 AUDIO
    TITLE "13:cjc029_4209"
    INDEX 01 00:50:42
  TRACK 47 AUDIO
    TITLE "0:"
    INDEX 01 00:51:42
  TRACK 48 AUDIO
    TITLE "14:cjc029_4210"
    INDEX 01 00:51:48
  TRACK 49 AUDIO
    TITLE "0:"
    INDEX 01 00:54:15
  TRACK 50 AUDIO
    TITLE "13:cjc029_4211"
    INDEX 01 00:54:72
  TRACK 51 AUDIO
    TITLE "0:"
    INDEX 01 00:56:04
  TRACK 52 AUDIO
    TITLE "14:cjc029_4212"
    INDEX 01 00:56:10
  TRACK 53 AUDIO
    TITLE "0:"
    INDEX 01 00:59:00
  TRACK 54 AUDIO
    TITLE "13:cjc029_4213"
    INDEX 01 00:59:57
  TRACK 55 AUDIO
    TITLE "0:"
    INDEX 01 01:01:07
  TRACK 56 AUDIO
    TITLE "14:cjc029_4214"
    INDEX 01 01:01:11
  TRACK 57 AUDIO
    TITLE "0:"
    INDEX 01 01:02:26
  TRACK 58 AUDIO
    TITLE "13:cjc029_4215"
    INDEX 01 01:03:06
  TRACK 59 AUDIO
    TITLE "0:"
    INDEX 01 01:04:15
  TRACK 60 AUDIO
    TITLE "14:cjc029_4216"
    INDEX 01 01:04:17
  TRACK 61 AUDIO
    TITLE "0:"
    INDEX 01 01:08:09
  TRACK 62 AUDIO
    TITLE "13:cjc029_4217"
    INDEX 01 01:08:66
  TRACK 63 AUDIO
    TITLE "0:"
    INDEX 01 01:10:10
  TRACK 64 AUDIO
    TITLE "14:cjc029_4218"
    INDEX 01 01:10:16
  TRACK 65 AUDIO
    TITLE "0:"
    INDEX 01 01:12:71
  TRACK 66 AUDIO
    TITLE "13:cjc029_4219"
    INDEX 01 01:13:53
  TRACK 67 AUDIO
    TITLE "0:"
    INDEX 01 01:14:63
  TRACK 68 AUDIO
    TITLE "14:cjc029_4220"
    INDEX 01 01:14:66
  TRACK 69 AUDIO
    TITLE "0:"
    INDEX 01 01:17:39
